<mxfile host="Electron" modified="2024-07-08T14:11:18.702Z" agent="Mozilla/5.0 (Macintosh; Intel Mac OS X 10_15_7) AppleWebKit/537.36 (KHTML, like Gecko) draw.io/24.6.4 Chrome/124.0.6367.207 Electron/30.0.6 Safari/537.36" etag="LNeavXirO0zGff5cB_x0" version="24.6.4" type="device">
  <diagram id="C5RBs43oDa-KdzZeNtuy" name="Page-1">
    <mxGraphModel dx="1485" dy="1099" grid="1" gridSize="10" guides="1" tooltips="1" connect="1" arrows="1" fold="1" page="1" pageScale="1" pageWidth="1169" pageHeight="827" math="0" shadow="0">
      <root>
        <mxCell id="WIyWlLk6GJQsqaUBKTNV-0" />
        <mxCell id="WIyWlLk6GJQsqaUBKTNV-1" parent="WIyWlLk6GJQsqaUBKTNV-0" />
        <mxCell id="wbRDAzE1RIUsLvNWZTxg-7" value="&lt;p style=&quot;margin: 0px ; margin-top: 4px ; text-align: center&quot;&gt;&lt;b&gt;Task&lt;/b&gt;&lt;/p&gt;&lt;hr size=&quot;1&quot;&gt;&lt;p style=&quot;margin: 0px 0px 0px 4px; font-size: 15px;&quot;&gt;&lt;font style=&quot;font-size: 15px;&quot;&gt;+ id: auto_increment&lt;/font&gt;&lt;/p&gt;&lt;p style=&quot;margin: 0px 0px 0px 4px; font-size: 15px;&quot;&gt;&lt;font style=&quot;font-size: 15px;&quot;&gt;+ title: string&lt;/font&gt;&lt;/p&gt;&lt;p style=&quot;margin: 0px 0px 0px 4px; font-size: 15px;&quot;&gt;&lt;font style=&quot;font-size: 15px;&quot;&gt;+ desc: string&lt;/font&gt;&lt;/p&gt;&lt;p style=&quot;margin: 0px 0px 0px 4px; font-size: 15px;&quot;&gt;&lt;font style=&quot;font-size: 15px;&quot;&gt;+ is_done: boolean&lt;/font&gt;&lt;/p&gt;&lt;p style=&quot;margin: 0px 0px 0px 4px; font-size: 15px;&quot;&gt;&lt;font style=&quot;font-size: 15px;&quot;&gt;+ created_at: timestamp&lt;/font&gt;&lt;/p&gt;&lt;p style=&quot;margin: 0px 0px 0px 4px; font-size: 15px;&quot;&gt;&lt;font style=&quot;font-size: 15px;&quot;&gt;+ finished_at: timestamp&lt;/font&gt;&lt;/p&gt;&lt;p style=&quot;margin: 0px 0px 0px 4px; font-size: 15px;&quot;&gt;&lt;font style=&quot;font-size: 15px;&quot;&gt;+ user_id: fk&amp;nbsp;&lt;/font&gt;&lt;/p&gt;&lt;hr style=&quot;font-size: 15px;&quot; size=&quot;1&quot;&gt;&lt;p style=&quot;margin: 0px 0px 0px 4px; font-size: 15px;&quot;&gt;&lt;font style=&quot;font-size: 15px;&quot;&gt;+ créer(): void&lt;/font&gt;&lt;/p&gt;&lt;p style=&quot;margin: 0px 0px 0px 4px; font-size: 15px;&quot;&gt;&lt;font style=&quot;font-size: 15px;&quot;&gt;+ afficher(): void&lt;/font&gt;&lt;/p&gt;&lt;p style=&quot;margin: 0px 0px 0px 4px; font-size: 15px;&quot;&gt;&lt;font style=&quot;font-size: 15px;&quot;&gt;+ modifier(): void&lt;/font&gt;&lt;/p&gt;&lt;p style=&quot;margin: 0px 0px 0px 4px; font-size: 15px;&quot;&gt;&lt;font style=&quot;font-size: 15px;&quot;&gt;+ supprimer(): void&lt;/font&gt;&lt;/p&gt;" style="verticalAlign=top;align=left;overflow=fill;fontSize=12;fontFamily=Helvetica;html=1;" parent="WIyWlLk6GJQsqaUBKTNV-1" vertex="1">
          <mxGeometry x="200" y="240" width="190" height="290" as="geometry" />
        </mxCell>
        <mxCell id="wbRDAzE1RIUsLvNWZTxg-8" value="&lt;p style=&quot;margin: 4px 0px 0px; text-align: center; font-size: 15px;&quot;&gt;&lt;b style=&quot;&quot;&gt;&lt;font style=&quot;font-size: 15px;&quot;&gt;User&lt;/font&gt;&lt;/b&gt;&lt;/p&gt;&lt;hr style=&quot;font-size: 15px;&quot; size=&quot;1&quot;&gt;&lt;p style=&quot;margin: 0px 0px 0px 4px; font-size: 15px;&quot;&gt;&lt;font style=&quot;font-size: 15px;&quot;&gt;+ id: auto_increment&lt;/font&gt;&lt;/p&gt;&lt;p style=&quot;margin: 0px 0px 0px 4px; font-size: 15px;&quot;&gt;&lt;font style=&quot;font-size: 15px;&quot;&gt;+ username: string&lt;/font&gt;&lt;/p&gt;&lt;p style=&quot;margin: 0px 0px 0px 4px; font-size: 15px;&quot;&gt;&lt;font style=&quot;font-size: 15px;&quot;&gt;+ password: string&lt;/font&gt;&lt;/p&gt;&lt;p style=&quot;margin: 0px 0px 0px 4px; font-size: 15px;&quot;&gt;&lt;font style=&quot;font-size: 15px;&quot;&gt;+ email: string&lt;/font&gt;&lt;/p&gt;&lt;hr style=&quot;font-size: 15px;&quot; size=&quot;1&quot;&gt;&lt;p style=&quot;margin: 0px 0px 0px 4px; font-size: 15px;&quot;&gt;&lt;font style=&quot;font-size: 15px;&quot;&gt;+ créer(): void&lt;/font&gt;&lt;/p&gt;&lt;p style=&quot;margin: 0px 0px 0px 4px; font-size: 15px;&quot;&gt;&lt;font style=&quot;font-size: 15px;&quot;&gt;+ afficher(): void&lt;/font&gt;&lt;/p&gt;&lt;p style=&quot;margin: 0px 0px 0px 4px; font-size: 15px;&quot;&gt;&lt;font style=&quot;font-size: 15px;&quot;&gt;+ modifier(): void&lt;/font&gt;&lt;/p&gt;&lt;p style=&quot;margin: 0px 0px 0px 4px; font-size: 15px;&quot;&gt;&lt;font style=&quot;font-size: 15px;&quot;&gt;+ supprimer(): void&lt;/font&gt;&lt;/p&gt;" style="verticalAlign=top;align=left;overflow=fill;fontSize=12;fontFamily=Helvetica;html=1;" parent="WIyWlLk6GJQsqaUBKTNV-1" vertex="1">
          <mxGeometry x="600" y="160" width="180" height="230" as="geometry" />
        </mxCell>
        <mxCell id="wbRDAzE1RIUsLvNWZTxg-13" value="Relation" style="endArrow=open;html=1;endSize=12;startArrow=diamondThin;startSize=14;startFill=0;edgeStyle=orthogonalEdgeStyle;entryX=1;entryY=0.5;entryDx=0;entryDy=0;exitX=0;exitY=0.25;exitDx=0;exitDy=0;" parent="WIyWlLk6GJQsqaUBKTNV-1" source="wbRDAzE1RIUsLvNWZTxg-8" target="wbRDAzE1RIUsLvNWZTxg-7" edge="1">
          <mxGeometry relative="1" as="geometry">
            <mxPoint x="560" y="370" as="sourcePoint" />
            <mxPoint x="400" y="370" as="targetPoint" />
          </mxGeometry>
        </mxCell>
        <mxCell id="wbRDAzE1RIUsLvNWZTxg-16" value="1..1" style="edgeLabel;html=1;align=center;verticalAlign=middle;resizable=0;points=[];" parent="wbRDAzE1RIUsLvNWZTxg-13" vertex="1" connectable="0">
          <mxGeometry x="-0.8305" y="2" relative="1" as="geometry">
            <mxPoint as="offset" />
          </mxGeometry>
        </mxCell>
        <mxCell id="wbRDAzE1RIUsLvNWZTxg-18" value="0..n" style="edgeLabel;html=1;align=center;verticalAlign=middle;resizable=0;points=[];" parent="wbRDAzE1RIUsLvNWZTxg-13" vertex="1" connectable="0">
          <mxGeometry x="0.8199" y="-2" relative="1" as="geometry">
            <mxPoint x="1" as="offset" />
          </mxGeometry>
        </mxCell>
        <mxCell id="wbRDAzE1RIUsLvNWZTxg-19" value="&lt;h1&gt;Diagramme de classes&lt;/h1&gt;&lt;div&gt;TODO APPLICATION&lt;/div&gt;" style="text;html=1;strokeColor=none;fillColor=none;spacing=5;spacingTop=-20;whiteSpace=wrap;overflow=hidden;rounded=0;" parent="WIyWlLk6GJQsqaUBKTNV-1" vertex="1">
          <mxGeometry x="360" y="20" width="320" height="120" as="geometry" />
        </mxCell>
        <mxCell id="bOofOLluuB5Por4DMkl8-38" value="Actor" style="shape=umlActor;verticalLabelPosition=bottom;verticalAlign=top;html=1;outlineConnect=0;" vertex="1" parent="WIyWlLk6GJQsqaUBKTNV-1">
          <mxGeometry x="1230" y="290" width="30" height="60" as="geometry" />
        </mxCell>
        <mxCell id="bOofOLluuB5Por4DMkl8-39" value="Page register" style="shape=umlLifeline;perimeter=lifelinePerimeter;whiteSpace=wrap;html=1;container=1;collapsible=0;recursiveResize=0;outlineConnect=0;rounded=1;shadow=0;comic=0;labelBackgroundColor=none;strokeWidth=1;fontFamily=Verdana;fontSize=12;align=center;" vertex="1" parent="WIyWlLk6GJQsqaUBKTNV-1">
          <mxGeometry x="1454" y="90" width="100" height="530" as="geometry" />
        </mxCell>
        <mxCell id="bOofOLluuB5Por4DMkl8-40" value="" style="html=1;points=[];perimeter=orthogonalPerimeter;rounded=0;shadow=0;comic=0;labelBackgroundColor=none;strokeWidth=1;fontFamily=Verdana;fontSize=12;align=center;" vertex="1" parent="bOofOLluuB5Por4DMkl8-39">
          <mxGeometry x="45" y="100" width="10" height="230" as="geometry" />
        </mxCell>
        <mxCell id="CUN27meOXo0ZbzrGyTi9-72" value="" style="html=1;points=[];perimeter=orthogonalPerimeter;rounded=0;shadow=0;comic=0;labelBackgroundColor=none;strokeWidth=1;fontFamily=Verdana;fontSize=12;align=center;" vertex="1" parent="bOofOLluuB5Por4DMkl8-39">
          <mxGeometry x="86" y="370" width="10" height="110" as="geometry" />
        </mxCell>
        <mxCell id="bOofOLluuB5Por4DMkl8-41" value="" style="shape=umlLifeline;perimeter=lifelinePerimeter;whiteSpace=wrap;html=1;container=1;collapsible=0;recursiveResize=0;outlineConnect=0;rounded=1;shadow=0;comic=0;labelBackgroundColor=none;strokeWidth=1;fontFamily=Verdana;fontSize=12;align=center;movable=1;resizable=1;rotatable=1;deletable=1;editable=1;locked=0;connectable=1;" vertex="1" parent="WIyWlLk6GJQsqaUBKTNV-1">
          <mxGeometry x="1614" y="90" width="615" height="570" as="geometry" />
        </mxCell>
        <mxCell id="bOofOLluuB5Por4DMkl8-42" value="" style="html=1;points=[];perimeter=orthogonalPerimeter;rounded=0;shadow=0;comic=0;labelBackgroundColor=none;strokeWidth=1;fontFamily=Verdana;fontSize=12;align=center;" vertex="1" parent="bOofOLluuB5Por4DMkl8-41">
          <mxGeometry x="45" y="120" width="10" height="110" as="geometry" />
        </mxCell>
        <mxCell id="bOofOLluuB5Por4DMkl8-55" value="Login" style="html=1;verticalAlign=bottom;endArrow=block;labelBackgroundColor=none;fontFamily=Verdana;fontSize=12;entryX=-0.314;entryY=0.352;entryDx=0;entryDy=0;entryPerimeter=0;" edge="1" parent="bOofOLluuB5Por4DMkl8-41" target="CUN27meOXo0ZbzrGyTi9-72">
          <mxGeometry relative="1" as="geometry">
            <mxPoint x="-245" y="410" as="sourcePoint" />
            <mxPoint x="-124" y="410" as="targetPoint" />
          </mxGeometry>
        </mxCell>
        <mxCell id="bOofOLluuB5Por4DMkl8-61" value="return" style="html=1;verticalAlign=bottom;endArrow=open;dashed=1;endSize=8;labelBackgroundColor=none;fontFamily=Verdana;fontSize=12;edgeStyle=elbowEdgeStyle;elbow=vertical;" edge="1" parent="bOofOLluuB5Por4DMkl8-41" target="bOofOLluuB5Por4DMkl8-43">
          <mxGeometry relative="1" as="geometry">
            <mxPoint x="-245" y="570" as="targetPoint" />
            <Array as="points">
              <mxPoint x="170" y="570" />
            </Array>
            <mxPoint x="470.00000000000045" y="550" as="sourcePoint" />
          </mxGeometry>
        </mxCell>
        <mxCell id="bOofOLluuB5Por4DMkl8-52" value="Si OK" style="html=1;verticalAlign=bottom;endArrow=block;entryX=0;entryY=0;labelBackgroundColor=none;fontFamily=Verdana;fontSize=12;edgeStyle=elbowEdgeStyle;elbow=vertical;" edge="1" parent="bOofOLluuB5Por4DMkl8-41">
          <mxGeometry relative="1" as="geometry">
            <mxPoint x="200" y="190.14285714285734" as="sourcePoint" />
            <mxPoint x="330" y="190.00000000000023" as="targetPoint" />
          </mxGeometry>
        </mxCell>
        <mxCell id="CUN27meOXo0ZbzrGyTi9-71" value="Si NON OK" style="html=1;verticalAlign=bottom;endArrow=none;entryX=0;entryY=0;labelBackgroundColor=none;fontFamily=Verdana;fontSize=12;edgeStyle=elbowEdgeStyle;elbow=vertical;endFill=0;startArrow=block;startFill=1;movable=1;resizable=1;rotatable=1;deletable=1;editable=1;locked=0;connectable=1;dashed=1;" edge="1" parent="bOofOLluuB5Por4DMkl8-41" source="bOofOLluuB5Por4DMkl8-39">
          <mxGeometry x="-0.0598" y="19" relative="1" as="geometry">
            <mxPoint x="65" y="269.43285714285736" as="sourcePoint" />
            <mxPoint x="195" y="269.29000000000025" as="targetPoint" />
            <mxPoint as="offset" />
          </mxGeometry>
        </mxCell>
        <mxCell id="bOofOLluuB5Por4DMkl8-43" value="Page TODO" style="shape=umlLifeline;perimeter=lifelinePerimeter;whiteSpace=wrap;html=1;container=1;collapsible=0;recursiveResize=0;outlineConnect=0;rounded=1;shadow=0;comic=0;labelBackgroundColor=none;strokeWidth=1;fontFamily=Verdana;fontSize=12;align=center;" vertex="1" parent="bOofOLluuB5Por4DMkl8-41">
          <mxGeometry x="85" width="100" height="580" as="geometry" />
        </mxCell>
        <mxCell id="bOofOLluuB5Por4DMkl8-64" value="" style="html=1;points=[];perimeter=orthogonalPerimeter;rounded=0;shadow=0;comic=0;labelBackgroundColor=none;strokeWidth=1;fontFamily=Verdana;fontSize=12;align=center;" vertex="1" parent="bOofOLluuB5Por4DMkl8-43">
          <mxGeometry x="45" y="440" width="10" height="70" as="geometry" />
        </mxCell>
        <mxCell id="CUN27meOXo0ZbzrGyTi9-80" value="SI OK" style="html=1;verticalAlign=bottom;endArrow=none;labelBackgroundColor=none;fontFamily=Verdana;fontSize=12;entryX=-0.335;entryY=0.646;entryDx=0;entryDy=0;entryPerimeter=0;startArrow=block;startFill=1;endFill=0;" edge="1" parent="bOofOLluuB5Por4DMkl8-43" target="CUN27meOXo0ZbzrGyTi9-77">
          <mxGeometry relative="1" as="geometry">
            <mxPoint x="61" y="475.40999999999997" as="sourcePoint" />
            <mxPoint x="229" y="474.40999999999997" as="targetPoint" />
          </mxGeometry>
        </mxCell>
        <mxCell id="CUN27meOXo0ZbzrGyTi9-76" value="Traitement" style="html=1;verticalAlign=bottom;endArrow=block;labelBackgroundColor=none;fontFamily=Verdana;fontSize=12;edgeStyle=elbowEdgeStyle;elbow=vertical;" edge="1" parent="bOofOLluuB5Por4DMkl8-41">
          <mxGeometry relative="1" as="geometry">
            <mxPoint x="196" y="400.14" as="sourcePoint" />
            <mxPoint x="276" y="400" as="targetPoint" />
          </mxGeometry>
        </mxCell>
        <mxCell id="CUN27meOXo0ZbzrGyTi9-77" value="" style="html=1;points=[];perimeter=orthogonalPerimeter;rounded=0;shadow=0;comic=0;labelBackgroundColor=none;strokeWidth=1;fontFamily=Verdana;fontSize=12;align=center;" vertex="1" parent="bOofOLluuB5Por4DMkl8-41">
          <mxGeometry x="276" y="360" width="10" height="180" as="geometry" />
        </mxCell>
        <mxCell id="CUN27meOXo0ZbzrGyTi9-79" value="SI NON OK" style="html=1;verticalAlign=bottom;endArrow=none;labelBackgroundColor=none;fontFamily=Verdana;fontSize=12;edgeStyle=elbowEdgeStyle;elbow=vertical;startArrow=block;startFill=1;endFill=0;entryX=-0.1;entryY=0.927;entryDx=0;entryDy=0;entryPerimeter=0;" edge="1" parent="bOofOLluuB5Por4DMkl8-41" target="CUN27meOXo0ZbzrGyTi9-77">
          <mxGeometry x="-0.035" y="8" relative="1" as="geometry">
            <mxPoint x="-244" y="530" as="sourcePoint" />
            <mxPoint x="266.68" y="530.1399999999999" as="targetPoint" />
            <mxPoint as="offset" />
          </mxGeometry>
        </mxCell>
        <mxCell id="bOofOLluuB5Por4DMkl8-45" value="BDD" style="shape=umlLifeline;perimeter=lifelinePerimeter;whiteSpace=wrap;html=1;container=1;collapsible=0;recursiveResize=0;outlineConnect=0;rounded=1;shadow=0;comic=0;labelBackgroundColor=none;strokeWidth=1;fontFamily=Verdana;fontSize=12;align=center;" vertex="1" parent="WIyWlLk6GJQsqaUBKTNV-1">
          <mxGeometry x="2034" y="90" width="100" height="580" as="geometry" />
        </mxCell>
        <mxCell id="bOofOLluuB5Por4DMkl8-47" value="Page d&#39;accueil" style="shape=umlLifeline;perimeter=lifelinePerimeter;whiteSpace=wrap;html=1;container=1;collapsible=0;recursiveResize=0;outlineConnect=0;rounded=1;shadow=0;comic=0;labelBackgroundColor=none;strokeWidth=1;fontFamily=Verdana;fontSize=12;align=center;" vertex="1" parent="WIyWlLk6GJQsqaUBKTNV-1">
          <mxGeometry x="1314" y="90" width="100" height="560" as="geometry" />
        </mxCell>
        <mxCell id="bOofOLluuB5Por4DMkl8-48" value="" style="html=1;points=[];perimeter=orthogonalPerimeter;rounded=0;shadow=0;comic=0;labelBackgroundColor=none;strokeWidth=1;fontFamily=Verdana;fontSize=12;align=center;" vertex="1" parent="bOofOLluuB5Por4DMkl8-47">
          <mxGeometry x="45" y="100" width="10" height="440" as="geometry" />
        </mxCell>
        <mxCell id="bOofOLluuB5Por4DMkl8-49" value="" style="html=1;points=[];perimeter=orthogonalPerimeter;rounded=0;shadow=0;comic=0;labelBackgroundColor=none;strokeWidth=1;fontFamily=Verdana;fontSize=12;align=center;" vertex="1" parent="WIyWlLk6GJQsqaUBKTNV-1">
          <mxGeometry x="1799" y="230" width="10" height="290" as="geometry" />
        </mxCell>
        <mxCell id="bOofOLluuB5Por4DMkl8-50" value="Traitement" style="html=1;verticalAlign=bottom;endArrow=block;labelBackgroundColor=none;fontFamily=Verdana;fontSize=12;edgeStyle=elbowEdgeStyle;elbow=vertical;" edge="1" parent="WIyWlLk6GJQsqaUBKTNV-1" source="bOofOLluuB5Por4DMkl8-42" target="bOofOLluuB5Por4DMkl8-49">
          <mxGeometry relative="1" as="geometry">
            <mxPoint x="1724" y="230" as="sourcePoint" />
            <Array as="points">
              <mxPoint x="1674" y="230" />
            </Array>
          </mxGeometry>
        </mxCell>
        <mxCell id="bOofOLluuB5Por4DMkl8-51" value="" style="html=1;points=[];perimeter=orthogonalPerimeter;rounded=0;shadow=0;comic=0;labelBackgroundColor=none;strokeWidth=1;fontFamily=Verdana;fontSize=12;align=center;" vertex="1" parent="WIyWlLk6GJQsqaUBKTNV-1">
          <mxGeometry x="1939" y="240" width="10" height="140" as="geometry" />
        </mxCell>
        <mxCell id="bOofOLluuB5Por4DMkl8-62" value="Register" style="html=1;verticalAlign=bottom;endArrow=block;entryX=0;entryY=0;labelBackgroundColor=none;fontFamily=Verdana;fontSize=12;edgeStyle=elbowEdgeStyle;elbow=vertical;" edge="1" parent="WIyWlLk6GJQsqaUBKTNV-1" source="bOofOLluuB5Por4DMkl8-48" target="bOofOLluuB5Por4DMkl8-40">
          <mxGeometry x="-0.0615" y="20" relative="1" as="geometry">
            <mxPoint x="1434" y="200" as="sourcePoint" />
            <mxPoint as="offset" />
          </mxGeometry>
        </mxCell>
        <mxCell id="bOofOLluuB5Por4DMkl8-63" value="envoi formulaire" style="html=1;verticalAlign=bottom;endArrow=block;entryX=0;entryY=0;labelBackgroundColor=none;fontFamily=Verdana;fontSize=12;edgeStyle=elbowEdgeStyle;elbow=vertical;" edge="1" parent="WIyWlLk6GJQsqaUBKTNV-1" source="bOofOLluuB5Por4DMkl8-40" target="bOofOLluuB5Por4DMkl8-42">
          <mxGeometry relative="1" as="geometry">
            <mxPoint x="1584" y="210" as="sourcePoint" />
          </mxGeometry>
        </mxCell>
        <mxCell id="bOofOLluuB5Por4DMkl8-77" value="" style="edgeStyle=orthogonalEdgeStyle;rounded=0;orthogonalLoop=1;jettySize=auto;html=1;" edge="1" parent="WIyWlLk6GJQsqaUBKTNV-1" source="bOofOLluuB5Por4DMkl8-69" target="bOofOLluuB5Por4DMkl8-48">
          <mxGeometry relative="1" as="geometry" />
        </mxCell>
        <mxCell id="bOofOLluuB5Por4DMkl8-69" value="App" style="shape=note;whiteSpace=wrap;html=1;size=14;verticalAlign=top;align=left;spacingTop=-6;rounded=0;shadow=0;comic=0;labelBackgroundColor=none;strokeWidth=1;fontFamily=Verdana;fontSize=12" vertex="1" parent="WIyWlLk6GJQsqaUBKTNV-1">
          <mxGeometry x="1314" y="40" width="100" height="35" as="geometry" />
        </mxCell>
        <mxCell id="bOofOLluuB5Por4DMkl8-70" value="Création de compte" style="shape=note;whiteSpace=wrap;html=1;size=14;verticalAlign=top;align=left;spacingTop=-6;rounded=0;shadow=0;comic=0;labelBackgroundColor=none;strokeWidth=1;fontFamily=Verdana;fontSize=12" vertex="1" parent="WIyWlLk6GJQsqaUBKTNV-1">
          <mxGeometry x="1454" y="40" width="100" height="35" as="geometry" />
        </mxCell>
        <mxCell id="CUN27meOXo0ZbzrGyTi9-0" value="User connected" style="shape=umlActor;verticalLabelPosition=bottom;verticalAlign=top;html=1;outlineConnect=0;" vertex="1" parent="WIyWlLk6GJQsqaUBKTNV-1">
          <mxGeometry x="2390" y="350" width="30" height="60" as="geometry" />
        </mxCell>
        <mxCell id="CUN27meOXo0ZbzrGyTi9-1" value="Page TODO" style="shape=umlLifeline;perimeter=lifelinePerimeter;whiteSpace=wrap;html=1;container=1;collapsible=0;recursiveResize=0;outlineConnect=0;rounded=1;shadow=0;comic=0;labelBackgroundColor=none;strokeWidth=1;fontFamily=Verdana;fontSize=12;align=center;" vertex="1" parent="WIyWlLk6GJQsqaUBKTNV-1">
          <mxGeometry x="2430" y="75" width="100" height="580" as="geometry" />
        </mxCell>
        <mxCell id="CUN27meOXo0ZbzrGyTi9-4" value="On Click &quot;ADD&quot;&amp;nbsp;&lt;div&gt;method fetch (&#39;/tasks&#39;, POST)&lt;br&gt;&lt;/div&gt;" style="html=1;verticalAlign=bottom;endArrow=block;labelBackgroundColor=none;fontFamily=Verdana;fontSize=12;edgeStyle=elbowEdgeStyle;elbow=vertical;" edge="1" parent="WIyWlLk6GJQsqaUBKTNV-1" source="CUN27meOXo0ZbzrGyTi9-1">
          <mxGeometry x="0.6303" y="10" relative="1" as="geometry">
            <mxPoint x="2520" y="180" as="sourcePoint" />
            <mxPoint x="2750" y="180" as="targetPoint" />
            <mxPoint x="1" as="offset" />
          </mxGeometry>
        </mxCell>
        <mxCell id="CUN27meOXo0ZbzrGyTi9-5" value="Frontend&amp;nbsp;&lt;div&gt;React&lt;/div&gt;" style="shape=umlLifeline;perimeter=lifelinePerimeter;whiteSpace=wrap;html=1;container=1;collapsible=0;recursiveResize=0;outlineConnect=0;rounded=1;shadow=0;comic=0;labelBackgroundColor=none;strokeWidth=1;fontFamily=Verdana;fontSize=12;align=center;" vertex="1" parent="WIyWlLk6GJQsqaUBKTNV-1">
          <mxGeometry x="2700" y="75" width="100" height="580" as="geometry" />
        </mxCell>
        <mxCell id="CUN27meOXo0ZbzrGyTi9-6" value="Backend&amp;nbsp;&lt;div&gt;NodeJS&lt;/div&gt;" style="shape=umlLifeline;perimeter=lifelinePerimeter;whiteSpace=wrap;html=1;container=1;collapsible=0;recursiveResize=0;outlineConnect=0;rounded=1;shadow=0;comic=0;labelBackgroundColor=none;strokeWidth=1;fontFamily=Verdana;fontSize=12;align=center;" vertex="1" parent="WIyWlLk6GJQsqaUBKTNV-1">
          <mxGeometry x="2990" y="75" width="100" height="580" as="geometry" />
        </mxCell>
        <mxCell id="CUN27meOXo0ZbzrGyTi9-9" value="fonction create()" style="html=1;verticalAlign=bottom;endArrow=block;labelBackgroundColor=none;fontFamily=Verdana;fontSize=12;edgeStyle=elbowEdgeStyle;elbow=vertical;" edge="1" parent="WIyWlLk6GJQsqaUBKTNV-1" source="CUN27meOXo0ZbzrGyTi9-5">
          <mxGeometry x="0.5155" y="10" relative="1" as="geometry">
            <mxPoint x="2770.5" y="210" as="sourcePoint" />
            <mxPoint x="3040.5" y="210" as="targetPoint" />
            <mxPoint as="offset" />
          </mxGeometry>
        </mxCell>
        <mxCell id="CUN27meOXo0ZbzrGyTi9-10" value="Database&lt;div&gt;SQLite&lt;/div&gt;" style="shape=umlLifeline;perimeter=lifelinePerimeter;whiteSpace=wrap;html=1;container=1;collapsible=0;recursiveResize=0;outlineConnect=0;rounded=1;shadow=0;comic=0;labelBackgroundColor=none;strokeWidth=1;fontFamily=Verdana;fontSize=12;align=center;" vertex="1" parent="WIyWlLk6GJQsqaUBKTNV-1">
          <mxGeometry x="3190" y="75" width="100" height="580" as="geometry" />
        </mxCell>
        <mxCell id="CUN27meOXo0ZbzrGyTi9-12" value="Enregistrement en BDD" style="html=1;verticalAlign=bottom;endArrow=block;labelBackgroundColor=none;fontFamily=Verdana;fontSize=12;edgeStyle=elbowEdgeStyle;elbow=vertical;" edge="1" parent="WIyWlLk6GJQsqaUBKTNV-1" target="CUN27meOXo0ZbzrGyTi9-10">
          <mxGeometry x="0.201" y="10" relative="1" as="geometry">
            <mxPoint x="3040.5" y="230" as="sourcePoint" />
            <mxPoint x="3230" y="230" as="targetPoint" />
            <mxPoint x="1" as="offset" />
          </mxGeometry>
        </mxCell>
        <mxCell id="CUN27meOXo0ZbzrGyTi9-13" value="Succes" style="html=1;verticalAlign=bottom;endArrow=none;labelBackgroundColor=none;fontFamily=Verdana;fontSize=12;edgeStyle=elbowEdgeStyle;elbow=vertical;endFill=0;startArrow=block;startFill=1;" edge="1" parent="WIyWlLk6GJQsqaUBKTNV-1" source="CUN27meOXo0ZbzrGyTi9-6" target="CUN27meOXo0ZbzrGyTi9-10">
          <mxGeometry x="0.201" y="10" relative="1" as="geometry">
            <mxPoint x="3050" y="280" as="sourcePoint" />
            <mxPoint x="3240" y="230" as="targetPoint" />
            <mxPoint x="1" as="offset" />
            <Array as="points">
              <mxPoint x="3115" y="280" />
            </Array>
          </mxGeometry>
        </mxCell>
        <mxCell id="CUN27meOXo0ZbzrGyTi9-14" value="Retour de la réponse" style="html=1;verticalAlign=bottom;endArrow=none;labelBackgroundColor=none;fontFamily=Verdana;fontSize=12;edgeStyle=elbowEdgeStyle;elbow=vertical;endFill=0;startArrow=block;startFill=1;" edge="1" parent="WIyWlLk6GJQsqaUBKTNV-1">
          <mxGeometry x="0.201" y="10" relative="1" as="geometry">
            <mxPoint x="2749.5" y="290" as="sourcePoint" />
            <mxPoint x="3040.5" y="290" as="targetPoint" />
            <mxPoint x="1" as="offset" />
            <Array as="points">
              <mxPoint x="2915.5" y="290" />
            </Array>
          </mxGeometry>
        </mxCell>
        <mxCell id="CUN27meOXo0ZbzrGyTi9-15" value="Mise à jour de la liste" style="html=1;verticalAlign=bottom;endArrow=none;labelBackgroundColor=none;fontFamily=Verdana;fontSize=12;edgeStyle=elbowEdgeStyle;elbow=vertical;endFill=0;startArrow=block;startFill=1;exitX=0.5;exitY=0.44;exitDx=0;exitDy=0;exitPerimeter=0;" edge="1" parent="WIyWlLk6GJQsqaUBKTNV-1">
          <mxGeometry x="0.201" y="10" relative="1" as="geometry">
            <mxPoint x="2480" y="300.20000000000005" as="sourcePoint" />
            <mxPoint x="2751" y="300" as="targetPoint" />
            <mxPoint x="1" as="offset" />
            <Array as="points">
              <mxPoint x="2626" y="300" />
            </Array>
          </mxGeometry>
        </mxCell>
        <mxCell id="CUN27meOXo0ZbzrGyTi9-16" value="Error" style="html=1;verticalAlign=bottom;endArrow=none;labelBackgroundColor=none;fontFamily=Verdana;fontSize=12;edgeStyle=elbowEdgeStyle;elbow=vertical;endFill=0;startArrow=block;startFill=1;" edge="1" parent="WIyWlLk6GJQsqaUBKTNV-1">
          <mxGeometry x="0.201" y="10" relative="1" as="geometry">
            <mxPoint x="3040" y="355.5" as="sourcePoint" />
            <mxPoint x="3240" y="355.5" as="targetPoint" />
            <mxPoint x="1" as="offset" />
            <Array as="points">
              <mxPoint x="3115" y="355.5" />
            </Array>
          </mxGeometry>
        </mxCell>
        <mxCell id="CUN27meOXo0ZbzrGyTi9-17" value="Retour de la réponse" style="html=1;verticalAlign=bottom;endArrow=none;labelBackgroundColor=none;fontFamily=Verdana;fontSize=12;edgeStyle=elbowEdgeStyle;elbow=vertical;endFill=0;startArrow=block;startFill=1;" edge="1" parent="WIyWlLk6GJQsqaUBKTNV-1">
          <mxGeometry x="0.201" y="10" relative="1" as="geometry">
            <mxPoint x="2750" y="365" as="sourcePoint" />
            <mxPoint x="3040.5" y="364.5" as="targetPoint" />
            <mxPoint x="1" as="offset" />
            <Array as="points">
              <mxPoint x="2915.5" y="364.5" />
            </Array>
          </mxGeometry>
        </mxCell>
        <mxCell id="CUN27meOXo0ZbzrGyTi9-18" value="Affichage message d&#39;erreur" style="html=1;verticalAlign=bottom;endArrow=none;labelBackgroundColor=none;fontFamily=Verdana;fontSize=12;edgeStyle=elbowEdgeStyle;elbow=vertical;endFill=0;startArrow=block;startFill=1;exitX=0.5;exitY=0.44;exitDx=0;exitDy=0;exitPerimeter=0;" edge="1" parent="WIyWlLk6GJQsqaUBKTNV-1">
          <mxGeometry x="0.1808" y="15" relative="1" as="geometry">
            <mxPoint x="2480" y="373.5" as="sourcePoint" />
            <mxPoint x="2751" y="373.5" as="targetPoint" />
            <mxPoint y="1" as="offset" />
            <Array as="points">
              <mxPoint x="2626" y="373.5" />
            </Array>
          </mxGeometry>
        </mxCell>
        <mxCell id="CUN27meOXo0ZbzrGyTi9-19" value="User connected" style="shape=umlActor;verticalLabelPosition=bottom;verticalAlign=top;html=1;outlineConnect=0;" vertex="1" parent="WIyWlLk6GJQsqaUBKTNV-1">
          <mxGeometry x="2408" y="1220" width="30" height="60" as="geometry" />
        </mxCell>
        <mxCell id="CUN27meOXo0ZbzrGyTi9-20" value="Page TODO" style="shape=umlLifeline;perimeter=lifelinePerimeter;whiteSpace=wrap;html=1;container=1;collapsible=0;recursiveResize=0;outlineConnect=0;rounded=1;shadow=0;comic=0;labelBackgroundColor=none;strokeWidth=1;fontFamily=Verdana;fontSize=12;align=center;" vertex="1" parent="WIyWlLk6GJQsqaUBKTNV-1">
          <mxGeometry x="2448" y="945" width="100" height="580" as="geometry" />
        </mxCell>
        <mxCell id="CUN27meOXo0ZbzrGyTi9-21" value="Visualisation de tous les todo&amp;nbsp;&lt;div&gt;method fetch (&#39;/tasks&#39;, GET)&lt;br&gt;&lt;/div&gt;" style="html=1;verticalAlign=bottom;endArrow=block;labelBackgroundColor=none;fontFamily=Verdana;fontSize=12;edgeStyle=elbowEdgeStyle;elbow=vertical;" edge="1" parent="WIyWlLk6GJQsqaUBKTNV-1" source="CUN27meOXo0ZbzrGyTi9-20">
          <mxGeometry x="0.6303" y="10" relative="1" as="geometry">
            <mxPoint x="2538" y="1050" as="sourcePoint" />
            <mxPoint x="2768" y="1050" as="targetPoint" />
            <mxPoint x="1" as="offset" />
          </mxGeometry>
        </mxCell>
        <mxCell id="CUN27meOXo0ZbzrGyTi9-22" value="Frontend&amp;nbsp;&lt;div&gt;React&lt;/div&gt;" style="shape=umlLifeline;perimeter=lifelinePerimeter;whiteSpace=wrap;html=1;container=1;collapsible=0;recursiveResize=0;outlineConnect=0;rounded=1;shadow=0;comic=0;labelBackgroundColor=none;strokeWidth=1;fontFamily=Verdana;fontSize=12;align=center;" vertex="1" parent="WIyWlLk6GJQsqaUBKTNV-1">
          <mxGeometry x="2718" y="945" width="100" height="580" as="geometry" />
        </mxCell>
        <mxCell id="CUN27meOXo0ZbzrGyTi9-23" value="Backend&lt;div&gt;NodeJS&lt;/div&gt;" style="shape=umlLifeline;perimeter=lifelinePerimeter;whiteSpace=wrap;html=1;container=1;collapsible=0;recursiveResize=0;outlineConnect=0;rounded=1;shadow=0;comic=0;labelBackgroundColor=none;strokeWidth=1;fontFamily=Verdana;fontSize=12;align=center;" vertex="1" parent="WIyWlLk6GJQsqaUBKTNV-1">
          <mxGeometry x="3008" y="945" width="100" height="580" as="geometry" />
        </mxCell>
        <mxCell id="CUN27meOXo0ZbzrGyTi9-26" value="fonction show()" style="html=1;verticalAlign=bottom;endArrow=block;labelBackgroundColor=none;fontFamily=Verdana;fontSize=12;edgeStyle=elbowEdgeStyle;elbow=vertical;" edge="1" parent="WIyWlLk6GJQsqaUBKTNV-1" source="CUN27meOXo0ZbzrGyTi9-22">
          <mxGeometry x="0.5155" y="10" relative="1" as="geometry">
            <mxPoint x="2788.5" y="1080" as="sourcePoint" />
            <mxPoint x="3058.5" y="1080" as="targetPoint" />
            <mxPoint as="offset" />
          </mxGeometry>
        </mxCell>
        <mxCell id="CUN27meOXo0ZbzrGyTi9-27" value="Database&lt;div&gt;SQLite&lt;/div&gt;" style="shape=umlLifeline;perimeter=lifelinePerimeter;whiteSpace=wrap;html=1;container=1;collapsible=0;recursiveResize=0;outlineConnect=0;rounded=1;shadow=0;comic=0;labelBackgroundColor=none;strokeWidth=1;fontFamily=Verdana;fontSize=12;align=center;" vertex="1" parent="WIyWlLk6GJQsqaUBKTNV-1">
          <mxGeometry x="3208" y="945" width="100" height="580" as="geometry" />
        </mxCell>
        <mxCell id="CUN27meOXo0ZbzrGyTi9-29" value="Requête" style="html=1;verticalAlign=bottom;endArrow=block;labelBackgroundColor=none;fontFamily=Verdana;fontSize=12;edgeStyle=elbowEdgeStyle;elbow=vertical;" edge="1" parent="WIyWlLk6GJQsqaUBKTNV-1" target="CUN27meOXo0ZbzrGyTi9-27">
          <mxGeometry x="0.201" y="10" relative="1" as="geometry">
            <mxPoint x="3058.5" y="1100" as="sourcePoint" />
            <mxPoint x="3248" y="1100" as="targetPoint" />
            <mxPoint x="1" as="offset" />
          </mxGeometry>
        </mxCell>
        <mxCell id="CUN27meOXo0ZbzrGyTi9-30" value="Succes" style="html=1;verticalAlign=bottom;endArrow=none;labelBackgroundColor=none;fontFamily=Verdana;fontSize=12;edgeStyle=elbowEdgeStyle;elbow=vertical;endFill=0;startArrow=block;startFill=1;" edge="1" parent="WIyWlLk6GJQsqaUBKTNV-1" source="CUN27meOXo0ZbzrGyTi9-23" target="CUN27meOXo0ZbzrGyTi9-27">
          <mxGeometry x="0.201" y="10" relative="1" as="geometry">
            <mxPoint x="3068" y="1150" as="sourcePoint" />
            <mxPoint x="3258" y="1100" as="targetPoint" />
            <mxPoint x="1" as="offset" />
            <Array as="points">
              <mxPoint x="3133" y="1150" />
            </Array>
          </mxGeometry>
        </mxCell>
        <mxCell id="CUN27meOXo0ZbzrGyTi9-31" value="Retour de la réponse" style="html=1;verticalAlign=bottom;endArrow=none;labelBackgroundColor=none;fontFamily=Verdana;fontSize=12;edgeStyle=elbowEdgeStyle;elbow=vertical;endFill=0;startArrow=block;startFill=1;" edge="1" parent="WIyWlLk6GJQsqaUBKTNV-1">
          <mxGeometry x="0.201" y="10" relative="1" as="geometry">
            <mxPoint x="2767.5" y="1160" as="sourcePoint" />
            <mxPoint x="3058.5" y="1160" as="targetPoint" />
            <mxPoint x="1" as="offset" />
            <Array as="points">
              <mxPoint x="2933.5" y="1160" />
            </Array>
          </mxGeometry>
        </mxCell>
        <mxCell id="CUN27meOXo0ZbzrGyTi9-32" value="Affichage des todos" style="html=1;verticalAlign=bottom;endArrow=none;labelBackgroundColor=none;fontFamily=Verdana;fontSize=12;edgeStyle=elbowEdgeStyle;elbow=vertical;endFill=0;startArrow=block;startFill=1;exitX=0.5;exitY=0.44;exitDx=0;exitDy=0;exitPerimeter=0;" edge="1" parent="WIyWlLk6GJQsqaUBKTNV-1">
          <mxGeometry x="0.201" y="10" relative="1" as="geometry">
            <mxPoint x="2498" y="1170.2" as="sourcePoint" />
            <mxPoint x="2769" y="1170" as="targetPoint" />
            <mxPoint x="1" as="offset" />
            <Array as="points">
              <mxPoint x="2644" y="1170" />
            </Array>
          </mxGeometry>
        </mxCell>
        <mxCell id="CUN27meOXo0ZbzrGyTi9-33" value="Error" style="html=1;verticalAlign=bottom;endArrow=none;labelBackgroundColor=none;fontFamily=Verdana;fontSize=12;edgeStyle=elbowEdgeStyle;elbow=vertical;endFill=0;startArrow=block;startFill=1;" edge="1" parent="WIyWlLk6GJQsqaUBKTNV-1">
          <mxGeometry x="0.201" y="10" relative="1" as="geometry">
            <mxPoint x="3058" y="1225.5" as="sourcePoint" />
            <mxPoint x="3258" y="1225.5" as="targetPoint" />
            <mxPoint x="1" as="offset" />
            <Array as="points">
              <mxPoint x="3133" y="1225.5" />
            </Array>
          </mxGeometry>
        </mxCell>
        <mxCell id="CUN27meOXo0ZbzrGyTi9-34" value="Retour de la réponse" style="html=1;verticalAlign=bottom;endArrow=none;labelBackgroundColor=none;fontFamily=Verdana;fontSize=12;edgeStyle=elbowEdgeStyle;elbow=vertical;endFill=0;startArrow=block;startFill=1;" edge="1" parent="WIyWlLk6GJQsqaUBKTNV-1">
          <mxGeometry x="0.201" y="10" relative="1" as="geometry">
            <mxPoint x="2768" y="1235" as="sourcePoint" />
            <mxPoint x="3058.5" y="1234.5" as="targetPoint" />
            <mxPoint x="1" as="offset" />
            <Array as="points">
              <mxPoint x="2933.5" y="1234.5" />
            </Array>
          </mxGeometry>
        </mxCell>
        <mxCell id="CUN27meOXo0ZbzrGyTi9-35" value="Affichage message d&#39;erreur" style="html=1;verticalAlign=bottom;endArrow=none;labelBackgroundColor=none;fontFamily=Verdana;fontSize=12;edgeStyle=elbowEdgeStyle;elbow=vertical;endFill=0;startArrow=block;startFill=1;exitX=0.5;exitY=0.44;exitDx=0;exitDy=0;exitPerimeter=0;" edge="1" parent="WIyWlLk6GJQsqaUBKTNV-1">
          <mxGeometry x="0.1808" y="15" relative="1" as="geometry">
            <mxPoint x="2498" y="1243.5" as="sourcePoint" />
            <mxPoint x="2769" y="1243.5" as="targetPoint" />
            <mxPoint y="1" as="offset" />
            <Array as="points">
              <mxPoint x="2644" y="1243.5" />
            </Array>
          </mxGeometry>
        </mxCell>
        <mxCell id="CUN27meOXo0ZbzrGyTi9-36" value="User connected" style="shape=umlActor;verticalLabelPosition=bottom;verticalAlign=top;html=1;outlineConnect=0;" vertex="1" parent="WIyWlLk6GJQsqaUBKTNV-1">
          <mxGeometry x="2400" y="2080" width="30" height="60" as="geometry" />
        </mxCell>
        <mxCell id="CUN27meOXo0ZbzrGyTi9-37" value="Page TODO" style="shape=umlLifeline;perimeter=lifelinePerimeter;whiteSpace=wrap;html=1;container=1;collapsible=0;recursiveResize=0;outlineConnect=0;rounded=1;shadow=0;comic=0;labelBackgroundColor=none;strokeWidth=1;fontFamily=Verdana;fontSize=12;align=center;" vertex="1" parent="WIyWlLk6GJQsqaUBKTNV-1">
          <mxGeometry x="2440" y="1805" width="100" height="580" as="geometry" />
        </mxCell>
        <mxCell id="CUN27meOXo0ZbzrGyTi9-38" value="Modifier un todo&amp;nbsp;&lt;div&gt;method fetch (&#39;/tasks/:id&#39;, PUT ou PATCH)&lt;br&gt;&lt;/div&gt;" style="html=1;verticalAlign=bottom;endArrow=block;labelBackgroundColor=none;fontFamily=Verdana;fontSize=12;edgeStyle=elbowEdgeStyle;elbow=vertical;" edge="1" parent="WIyWlLk6GJQsqaUBKTNV-1" source="CUN27meOXo0ZbzrGyTi9-37">
          <mxGeometry x="0.6392" y="10" relative="1" as="geometry">
            <mxPoint x="2530" y="1910" as="sourcePoint" />
            <mxPoint x="2760" y="1910" as="targetPoint" />
            <mxPoint as="offset" />
          </mxGeometry>
        </mxCell>
        <mxCell id="CUN27meOXo0ZbzrGyTi9-39" value="Frontend&amp;nbsp;&lt;div&gt;React&lt;/div&gt;" style="shape=umlLifeline;perimeter=lifelinePerimeter;whiteSpace=wrap;html=1;container=1;collapsible=0;recursiveResize=0;outlineConnect=0;rounded=1;shadow=0;comic=0;labelBackgroundColor=none;strokeWidth=1;fontFamily=Verdana;fontSize=12;align=center;" vertex="1" parent="WIyWlLk6GJQsqaUBKTNV-1">
          <mxGeometry x="2710" y="1805" width="100" height="580" as="geometry" />
        </mxCell>
        <mxCell id="CUN27meOXo0ZbzrGyTi9-40" value="Backend&lt;div&gt;NodeJS&lt;/div&gt;" style="shape=umlLifeline;perimeter=lifelinePerimeter;whiteSpace=wrap;html=1;container=1;collapsible=0;recursiveResize=0;outlineConnect=0;rounded=1;shadow=0;comic=0;labelBackgroundColor=none;strokeWidth=1;fontFamily=Verdana;fontSize=12;align=center;" vertex="1" parent="WIyWlLk6GJQsqaUBKTNV-1">
          <mxGeometry x="3000" y="1805" width="100" height="580" as="geometry" />
        </mxCell>
        <mxCell id="CUN27meOXo0ZbzrGyTi9-43" value="fonction update()" style="html=1;verticalAlign=bottom;endArrow=block;labelBackgroundColor=none;fontFamily=Verdana;fontSize=12;edgeStyle=elbowEdgeStyle;elbow=vertical;" edge="1" parent="WIyWlLk6GJQsqaUBKTNV-1" source="CUN27meOXo0ZbzrGyTi9-39">
          <mxGeometry x="0.5155" y="10" relative="1" as="geometry">
            <mxPoint x="2780.5" y="1940" as="sourcePoint" />
            <mxPoint x="3050.5" y="1940" as="targetPoint" />
            <mxPoint as="offset" />
          </mxGeometry>
        </mxCell>
        <mxCell id="CUN27meOXo0ZbzrGyTi9-44" value="Database&lt;div&gt;SQLite&lt;/div&gt;" style="shape=umlLifeline;perimeter=lifelinePerimeter;whiteSpace=wrap;html=1;container=1;collapsible=0;recursiveResize=0;outlineConnect=0;rounded=1;shadow=0;comic=0;labelBackgroundColor=none;strokeWidth=1;fontFamily=Verdana;fontSize=12;align=center;" vertex="1" parent="WIyWlLk6GJQsqaUBKTNV-1">
          <mxGeometry x="3200" y="1805" width="100" height="580" as="geometry" />
        </mxCell>
        <mxCell id="CUN27meOXo0ZbzrGyTi9-46" value="Requête" style="html=1;verticalAlign=bottom;endArrow=block;labelBackgroundColor=none;fontFamily=Verdana;fontSize=12;edgeStyle=elbowEdgeStyle;elbow=vertical;" edge="1" parent="WIyWlLk6GJQsqaUBKTNV-1" target="CUN27meOXo0ZbzrGyTi9-44">
          <mxGeometry x="0.201" y="10" relative="1" as="geometry">
            <mxPoint x="3050.5" y="1960" as="sourcePoint" />
            <mxPoint x="3240" y="1960" as="targetPoint" />
            <mxPoint x="1" as="offset" />
          </mxGeometry>
        </mxCell>
        <mxCell id="CUN27meOXo0ZbzrGyTi9-47" value="Succes" style="html=1;verticalAlign=bottom;endArrow=none;labelBackgroundColor=none;fontFamily=Verdana;fontSize=12;edgeStyle=elbowEdgeStyle;elbow=vertical;endFill=0;startArrow=block;startFill=1;" edge="1" parent="WIyWlLk6GJQsqaUBKTNV-1" source="CUN27meOXo0ZbzrGyTi9-40" target="CUN27meOXo0ZbzrGyTi9-44">
          <mxGeometry x="0.201" y="10" relative="1" as="geometry">
            <mxPoint x="3060" y="2010" as="sourcePoint" />
            <mxPoint x="3250" y="1960" as="targetPoint" />
            <mxPoint x="1" as="offset" />
            <Array as="points">
              <mxPoint x="3125" y="2010" />
            </Array>
          </mxGeometry>
        </mxCell>
        <mxCell id="CUN27meOXo0ZbzrGyTi9-48" value="Retour de la réponse" style="html=1;verticalAlign=bottom;endArrow=none;labelBackgroundColor=none;fontFamily=Verdana;fontSize=12;edgeStyle=elbowEdgeStyle;elbow=vertical;endFill=0;startArrow=block;startFill=1;" edge="1" parent="WIyWlLk6GJQsqaUBKTNV-1">
          <mxGeometry x="0.201" y="10" relative="1" as="geometry">
            <mxPoint x="2759.5" y="2020" as="sourcePoint" />
            <mxPoint x="3050.5" y="2020" as="targetPoint" />
            <mxPoint x="1" as="offset" />
            <Array as="points">
              <mxPoint x="2925.5" y="2020" />
            </Array>
          </mxGeometry>
        </mxCell>
        <mxCell id="CUN27meOXo0ZbzrGyTi9-49" value="Mise à jour du todo" style="html=1;verticalAlign=bottom;endArrow=none;labelBackgroundColor=none;fontFamily=Verdana;fontSize=12;edgeStyle=elbowEdgeStyle;elbow=vertical;endFill=0;startArrow=block;startFill=1;exitX=0.5;exitY=0.44;exitDx=0;exitDy=0;exitPerimeter=0;" edge="1" parent="WIyWlLk6GJQsqaUBKTNV-1">
          <mxGeometry x="0.201" y="10" relative="1" as="geometry">
            <mxPoint x="2490" y="2030.2" as="sourcePoint" />
            <mxPoint x="2761" y="2030" as="targetPoint" />
            <mxPoint x="1" as="offset" />
            <Array as="points">
              <mxPoint x="2636" y="2030" />
            </Array>
          </mxGeometry>
        </mxCell>
        <mxCell id="CUN27meOXo0ZbzrGyTi9-50" value="Error" style="html=1;verticalAlign=bottom;endArrow=none;labelBackgroundColor=none;fontFamily=Verdana;fontSize=12;edgeStyle=elbowEdgeStyle;elbow=vertical;endFill=0;startArrow=block;startFill=1;" edge="1" parent="WIyWlLk6GJQsqaUBKTNV-1">
          <mxGeometry x="0.201" y="10" relative="1" as="geometry">
            <mxPoint x="3050" y="2085.5" as="sourcePoint" />
            <mxPoint x="3250" y="2085.5" as="targetPoint" />
            <mxPoint x="1" as="offset" />
            <Array as="points">
              <mxPoint x="3125" y="2085.5" />
            </Array>
          </mxGeometry>
        </mxCell>
        <mxCell id="CUN27meOXo0ZbzrGyTi9-51" value="Retour de la réponse" style="html=1;verticalAlign=bottom;endArrow=none;labelBackgroundColor=none;fontFamily=Verdana;fontSize=12;edgeStyle=elbowEdgeStyle;elbow=vertical;endFill=0;startArrow=block;startFill=1;" edge="1" parent="WIyWlLk6GJQsqaUBKTNV-1">
          <mxGeometry x="0.201" y="10" relative="1" as="geometry">
            <mxPoint x="2760" y="2095" as="sourcePoint" />
            <mxPoint x="3050.5" y="2094.5" as="targetPoint" />
            <mxPoint x="1" as="offset" />
            <Array as="points">
              <mxPoint x="2925.5" y="2094.5" />
            </Array>
          </mxGeometry>
        </mxCell>
        <mxCell id="CUN27meOXo0ZbzrGyTi9-52" value="Affichage message d&#39;erreur" style="html=1;verticalAlign=bottom;endArrow=none;labelBackgroundColor=none;fontFamily=Verdana;fontSize=12;edgeStyle=elbowEdgeStyle;elbow=vertical;endFill=0;startArrow=block;startFill=1;exitX=0.5;exitY=0.44;exitDx=0;exitDy=0;exitPerimeter=0;" edge="1" parent="WIyWlLk6GJQsqaUBKTNV-1">
          <mxGeometry x="0.1808" y="15" relative="1" as="geometry">
            <mxPoint x="2490" y="2103.5" as="sourcePoint" />
            <mxPoint x="2761" y="2103.5" as="targetPoint" />
            <mxPoint y="1" as="offset" />
            <Array as="points">
              <mxPoint x="2636" y="2103.5" />
            </Array>
          </mxGeometry>
        </mxCell>
        <mxCell id="CUN27meOXo0ZbzrGyTi9-53" value="User connected" style="shape=umlActor;verticalLabelPosition=bottom;verticalAlign=top;html=1;outlineConnect=0;" vertex="1" parent="WIyWlLk6GJQsqaUBKTNV-1">
          <mxGeometry x="2410" y="2870" width="30" height="60" as="geometry" />
        </mxCell>
        <mxCell id="CUN27meOXo0ZbzrGyTi9-54" value="Page TODO" style="shape=umlLifeline;perimeter=lifelinePerimeter;whiteSpace=wrap;html=1;container=1;collapsible=0;recursiveResize=0;outlineConnect=0;rounded=1;shadow=0;comic=0;labelBackgroundColor=none;strokeWidth=1;fontFamily=Verdana;fontSize=12;align=center;" vertex="1" parent="WIyWlLk6GJQsqaUBKTNV-1">
          <mxGeometry x="2450" y="2595" width="100" height="580" as="geometry" />
        </mxCell>
        <mxCell id="CUN27meOXo0ZbzrGyTi9-55" value="Modifier un todo&amp;nbsp;&lt;div&gt;method fetch (&#39;/tasks/:id&#39;, DELETE)&lt;br&gt;&lt;/div&gt;" style="html=1;verticalAlign=bottom;endArrow=block;labelBackgroundColor=none;fontFamily=Verdana;fontSize=12;edgeStyle=elbowEdgeStyle;elbow=vertical;" edge="1" parent="WIyWlLk6GJQsqaUBKTNV-1" source="CUN27meOXo0ZbzrGyTi9-54">
          <mxGeometry x="0.6392" y="10" relative="1" as="geometry">
            <mxPoint x="2540" y="2700" as="sourcePoint" />
            <mxPoint x="2770" y="2700" as="targetPoint" />
            <mxPoint as="offset" />
          </mxGeometry>
        </mxCell>
        <mxCell id="CUN27meOXo0ZbzrGyTi9-56" value="Frontend&amp;nbsp;&lt;div&gt;React&lt;/div&gt;" style="shape=umlLifeline;perimeter=lifelinePerimeter;whiteSpace=wrap;html=1;container=1;collapsible=0;recursiveResize=0;outlineConnect=0;rounded=1;shadow=0;comic=0;labelBackgroundColor=none;strokeWidth=1;fontFamily=Verdana;fontSize=12;align=center;" vertex="1" parent="WIyWlLk6GJQsqaUBKTNV-1">
          <mxGeometry x="2720" y="2595" width="100" height="580" as="geometry" />
        </mxCell>
        <mxCell id="CUN27meOXo0ZbzrGyTi9-57" value="Backend&lt;div&gt;NodeJS&lt;/div&gt;" style="shape=umlLifeline;perimeter=lifelinePerimeter;whiteSpace=wrap;html=1;container=1;collapsible=0;recursiveResize=0;outlineConnect=0;rounded=1;shadow=0;comic=0;labelBackgroundColor=none;strokeWidth=1;fontFamily=Verdana;fontSize=12;align=center;" vertex="1" parent="WIyWlLk6GJQsqaUBKTNV-1">
          <mxGeometry x="3010" y="2595" width="100" height="580" as="geometry" />
        </mxCell>
        <mxCell id="CUN27meOXo0ZbzrGyTi9-60" value="fonction delete()" style="html=1;verticalAlign=bottom;endArrow=block;labelBackgroundColor=none;fontFamily=Verdana;fontSize=12;edgeStyle=elbowEdgeStyle;elbow=vertical;" edge="1" parent="WIyWlLk6GJQsqaUBKTNV-1" source="CUN27meOXo0ZbzrGyTi9-56">
          <mxGeometry x="0.5155" y="10" relative="1" as="geometry">
            <mxPoint x="2790.5" y="2730" as="sourcePoint" />
            <mxPoint x="3060.5" y="2730" as="targetPoint" />
            <mxPoint as="offset" />
          </mxGeometry>
        </mxCell>
        <mxCell id="CUN27meOXo0ZbzrGyTi9-61" value="Database&lt;div&gt;SQLite&lt;/div&gt;" style="shape=umlLifeline;perimeter=lifelinePerimeter;whiteSpace=wrap;html=1;container=1;collapsible=0;recursiveResize=0;outlineConnect=0;rounded=1;shadow=0;comic=0;labelBackgroundColor=none;strokeWidth=1;fontFamily=Verdana;fontSize=12;align=center;" vertex="1" parent="WIyWlLk6GJQsqaUBKTNV-1">
          <mxGeometry x="3210" y="2595" width="100" height="580" as="geometry" />
        </mxCell>
        <mxCell id="CUN27meOXo0ZbzrGyTi9-63" value="Suppréssion en BDD" style="html=1;verticalAlign=bottom;endArrow=block;labelBackgroundColor=none;fontFamily=Verdana;fontSize=12;edgeStyle=elbowEdgeStyle;elbow=vertical;" edge="1" parent="WIyWlLk6GJQsqaUBKTNV-1" target="CUN27meOXo0ZbzrGyTi9-61">
          <mxGeometry x="0.201" y="10" relative="1" as="geometry">
            <mxPoint x="3060.5" y="2750" as="sourcePoint" />
            <mxPoint x="3250" y="2750" as="targetPoint" />
            <mxPoint x="1" as="offset" />
          </mxGeometry>
        </mxCell>
        <mxCell id="CUN27meOXo0ZbzrGyTi9-64" value="Succes" style="html=1;verticalAlign=bottom;endArrow=none;labelBackgroundColor=none;fontFamily=Verdana;fontSize=12;edgeStyle=elbowEdgeStyle;elbow=vertical;endFill=0;startArrow=block;startFill=1;" edge="1" parent="WIyWlLk6GJQsqaUBKTNV-1" source="CUN27meOXo0ZbzrGyTi9-57" target="CUN27meOXo0ZbzrGyTi9-61">
          <mxGeometry x="0.201" y="10" relative="1" as="geometry">
            <mxPoint x="3070" y="2800" as="sourcePoint" />
            <mxPoint x="3260" y="2750" as="targetPoint" />
            <mxPoint x="1" as="offset" />
            <Array as="points">
              <mxPoint x="3135" y="2800" />
            </Array>
          </mxGeometry>
        </mxCell>
        <mxCell id="CUN27meOXo0ZbzrGyTi9-65" value="Retour de la réponse" style="html=1;verticalAlign=bottom;endArrow=none;labelBackgroundColor=none;fontFamily=Verdana;fontSize=12;edgeStyle=elbowEdgeStyle;elbow=vertical;endFill=0;startArrow=block;startFill=1;" edge="1" parent="WIyWlLk6GJQsqaUBKTNV-1">
          <mxGeometry x="0.201" y="10" relative="1" as="geometry">
            <mxPoint x="2769.5" y="2810" as="sourcePoint" />
            <mxPoint x="3060.5" y="2810" as="targetPoint" />
            <mxPoint x="1" as="offset" />
            <Array as="points">
              <mxPoint x="2935.5" y="2810" />
            </Array>
          </mxGeometry>
        </mxCell>
        <mxCell id="CUN27meOXo0ZbzrGyTi9-66" value="Mise à jour de la todoList" style="html=1;verticalAlign=bottom;endArrow=none;labelBackgroundColor=none;fontFamily=Verdana;fontSize=12;edgeStyle=elbowEdgeStyle;elbow=vertical;endFill=0;startArrow=block;startFill=1;exitX=0.5;exitY=0.44;exitDx=0;exitDy=0;exitPerimeter=0;" edge="1" parent="WIyWlLk6GJQsqaUBKTNV-1">
          <mxGeometry x="0.201" y="10" relative="1" as="geometry">
            <mxPoint x="2500" y="2820.2" as="sourcePoint" />
            <mxPoint x="2771" y="2820" as="targetPoint" />
            <mxPoint x="1" as="offset" />
            <Array as="points">
              <mxPoint x="2646" y="2820" />
            </Array>
          </mxGeometry>
        </mxCell>
        <mxCell id="CUN27meOXo0ZbzrGyTi9-67" value="Error" style="html=1;verticalAlign=bottom;endArrow=none;labelBackgroundColor=none;fontFamily=Verdana;fontSize=12;edgeStyle=elbowEdgeStyle;elbow=vertical;endFill=0;startArrow=block;startFill=1;" edge="1" parent="WIyWlLk6GJQsqaUBKTNV-1">
          <mxGeometry x="0.201" y="10" relative="1" as="geometry">
            <mxPoint x="3060" y="2875.5" as="sourcePoint" />
            <mxPoint x="3260" y="2875.5" as="targetPoint" />
            <mxPoint x="1" as="offset" />
            <Array as="points">
              <mxPoint x="3135" y="2875.5" />
            </Array>
          </mxGeometry>
        </mxCell>
        <mxCell id="CUN27meOXo0ZbzrGyTi9-68" value="Retour de la réponse" style="html=1;verticalAlign=bottom;endArrow=none;labelBackgroundColor=none;fontFamily=Verdana;fontSize=12;edgeStyle=elbowEdgeStyle;elbow=vertical;endFill=0;startArrow=block;startFill=1;" edge="1" parent="WIyWlLk6GJQsqaUBKTNV-1">
          <mxGeometry x="0.201" y="10" relative="1" as="geometry">
            <mxPoint x="2770" y="2885" as="sourcePoint" />
            <mxPoint x="3060.5" y="2884.5" as="targetPoint" />
            <mxPoint x="1" as="offset" />
            <Array as="points">
              <mxPoint x="2935.5" y="2884.5" />
            </Array>
          </mxGeometry>
        </mxCell>
        <mxCell id="CUN27meOXo0ZbzrGyTi9-69" value="Affichage message d&#39;erreur" style="html=1;verticalAlign=bottom;endArrow=none;labelBackgroundColor=none;fontFamily=Verdana;fontSize=12;edgeStyle=elbowEdgeStyle;elbow=vertical;endFill=0;startArrow=block;startFill=1;exitX=0.5;exitY=0.44;exitDx=0;exitDy=0;exitPerimeter=0;" edge="1" parent="WIyWlLk6GJQsqaUBKTNV-1">
          <mxGeometry x="0.1808" y="15" relative="1" as="geometry">
            <mxPoint x="2500" y="2893.5" as="sourcePoint" />
            <mxPoint x="2771" y="2893.5" as="targetPoint" />
            <mxPoint y="1" as="offset" />
            <Array as="points">
              <mxPoint x="2646" y="2893.5" />
            </Array>
          </mxGeometry>
        </mxCell>
        <mxCell id="CUN27meOXo0ZbzrGyTi9-73" value="Envoi de données" style="html=1;verticalAlign=bottom;endArrow=block;labelBackgroundColor=none;fontFamily=Verdana;fontSize=12;entryX=-0.357;entryY=0.927;entryDx=0;entryDy=0;entryPerimeter=0;" edge="1" parent="WIyWlLk6GJQsqaUBKTNV-1" target="bOofOLluuB5Por4DMkl8-49">
          <mxGeometry x="0.0597" y="9" relative="1" as="geometry">
            <mxPoint x="1550" y="500" as="sourcePoint" />
            <mxPoint x="1718" y="499" as="targetPoint" />
            <mxPoint as="offset" />
          </mxGeometry>
        </mxCell>
        <mxCell id="CUN27meOXo0ZbzrGyTi9-70" value="ENREGISTREMENT" style="html=1;verticalAlign=bottom;endArrow=block;labelBackgroundColor=none;fontFamily=Verdana;fontSize=12;edgeStyle=elbowEdgeStyle;elbow=vertical;exitX=0.929;exitY=0.348;exitDx=0;exitDy=0;exitPerimeter=0;" edge="1" parent="WIyWlLk6GJQsqaUBKTNV-1" source="bOofOLluuB5Por4DMkl8-51" target="bOofOLluuB5Por4DMkl8-45">
          <mxGeometry relative="1" as="geometry">
            <mxPoint x="1949" y="364.43285714285736" as="sourcePoint" />
            <mxPoint x="2079" y="364.29000000000025" as="targetPoint" />
            <Array as="points">
              <mxPoint x="2020" y="290" />
            </Array>
          </mxGeometry>
        </mxCell>
      </root>
    </mxGraphModel>
  </diagram>
</mxfile>
